<svg 
  xmlns="http://www.w3.org/2000/svg"
  viewBox="0 0 96 96">
  <g id="g_0">
    <path d="M33.6,9c-12.1,2.2 -20.6,6.3 -23.7,11.4 -1.7,2.8 -1.9,5.3 -1.9,27.6 0,28.2 0.1,28.6 8.7,33.2 8.5,4.7 16.3,6.2 31.3,6.2 15,-0 22.8,-1.5 31.3,-6.2 8.6,-4.6 8.7,-5 8.7,-33.3 0,-23.9 -0.1,-24.7 -2.2,-27.9 -2.6,-3.8 -8.8,-7.4 -16.9,-9.6 -6.4,-1.8 -28.4,-2.7 -35.3,-1.4zM69,18.9c6.7,2.1 11.4,5.4 10.7,7.4 -0.5,1.8 -6.5,5.5 -10.6,6.7 -16,4.7 -39.7,3.1 -49.1,-3.3 -1.9,-1.2 -3.5,-2.7 -3.7,-3.4 -1,-2.9 8,-7.4 18.4,-9.3 8,-1.5 26.9,-0.4 34.3,1.9zM39,49.5c1.5,1.8 1,4.5 -1.2,5.9 -3.5,2.2 -7.4,-2.7 -4.8,-5.9 1.6,-1.9 4.4,-1.9 6,-0zM63,49.5c2.6,3.2 -1.3,8.1 -4.7,5.9 -2.3,-1.4 -2.8,-4.1 -1.3,-5.9 1.6,-1.9 4.4,-1.9 6,-0zM56,65.5c0,2.7 -4.7,6.5 -8,6.5 -3.3,-0 -8,-3.8 -8,-6.5 0,-1.2 1.5,-1.5 8,-1.5 6.5,-0 8,0.3 8,1.5z" />
    <path d="M40,23c-17,1.9 -11.4,6 8,6 10.4,-0 18,-1.3 18,-3 0,-2.4 -15,-4.1 -26,-3z" />
  </g>
</svg>